<svg xmlns="http://www.w3.org/2000/svg" viewBox="0 0 336.8 83.56"><defs><style>.cls-2{fill:#fff}</style></defs><g id="Layer_2" data-name="Layer 2"><g id="Layer_1-2" data-name="Layer 1"><path d="M260.26 14.82a5.57 5.57 0 0 0-4.63 2.11 8.84 8.84 0 0 0-1.63 5.64 9.62 9.62 0 0 0 1.59 5.62 5.35 5.35 0 0 0 4.71 2.29 5.66 5.66 0 0 0 4.7-2.22 9.11 9.11 0 0 0 1.72-5.75 8.24 8.24 0 0 0-1.79-5.72 6 6 0 0 0-4.67-1.97ZM45.4 30.47a5.66 5.66 0 0 0 4.73-2.21 9.11 9.11 0 0 0 1.72-5.75A8.24 8.24 0 0 0 50 16.8a6 6 0 0 0-4.65-2 5.57 5.57 0 0 0-4.63 2.11 8.84 8.84 0 0 0-1.66 5.64 9.62 9.62 0 0 0 1.59 5.62 5.35 5.35 0 0 0 4.75 2.3ZM163 14.82a5.57 5.57 0 0 0-4.63 2.11 8.84 8.84 0 0 0-1.66 5.64 9.62 9.62 0 0 0 1.59 5.62 5.35 5.35 0 0 0 4.7 2.28 5.66 5.66 0 0 0 4.73-2.21 9.11 9.11 0 0 0 1.72-5.75 8.24 8.24 0 0 0-1.79-5.72 6 6 0 0 0-4.66-1.97Zm166.91 1.64a4.29 4.29 0 0 0-3.91-1.85 4.53 4.53 0 0 0-3.8 1.66 8.22 8.22 0 0 0-1.61 4.11h10.3a6 6 0 0 0-.98-3.92Z" style="fill:none"/><path d="M16.85 34.84a23.86 23.86 0 0 0 6.94-1A12.88 12.88 0 0 0 29 31.1l.73-7.38-4.73-.48-.83 5a14.08 14.08 0 0 1-6.81 1.46 10.85 10.85 0 0 1-8.06-3.09q-3.07-3.09-3.07-9.13 0-5.77 2.89-9.1a9.65 9.65 0 0 1 7.62-3.28 13.44 13.44 0 0 1 7.49 2l.83 4.68 4.73-.47L28.91 4a15.61 15.61 0 0 0-4.78-2.8A19.78 19.78 0 0 0 16.85 0a16 16 0 0 0-9.57 2.7 16.17 16.17 0 0 0-5.51 6.82A20.87 20.87 0 0 0 0 17.84a16.58 16.58 0 0 0 4.76 12.24 16.38 16.38 0 0 0 12.09 4.76Zm28.34 0a12.34 12.34 0 0 0 9-3.35 11.72 11.72 0 0 0 3.46-8.81 13 13 0 0 0-3-8.58q-3-3.64-9.1-3.64t-9.1 3.67a13.21 13.21 0 0 0-3.07 8.76 11.75 11.75 0 0 0 3.25 8.74 11.68 11.68 0 0 0 8.56 3.21Zm-4.42-17.91a5.57 5.57 0 0 1 4.63-2.11 6 6 0 0 1 4.65 2 8.24 8.24 0 0 1 1.79 5.72 9.11 9.11 0 0 1-1.72 5.75 5.66 5.66 0 0 1-4.73 2.21 5.35 5.35 0 0 1-4.71-2.29 9.62 9.62 0 0 1-1.59-5.62 8.84 8.84 0 0 1 1.68-5.66Zm33.12 13.13h-4.37V20.9a7.47 7.47 0 0 1 1.35-4.24 4.57 4.57 0 0 1 4-1.85 4 4 0 0 1 3.25 1.38q1.17 1.38 1.17 4.71v9.15h-1.24v4.26h10.3v-4.25h-3.49V21a7.7 7.7 0 0 1 1.33-4.26 4.53 4.53 0 0 1 4-1.87 4.1 4.1 0 0 1 3.3 1.38q1.17 1.38 1.17 4.71v9.15h-1.3v4.26h10.3v-4.31h-3.43V18.88q0-4.32-2.39-6.34a8.35 8.35 0 0 0-5.56-2 8 8 0 0 0-4.84 1.43 9.06 9.06 0 0 0-3 3.82 6.79 6.79 0 0 0-2.91-4 8.79 8.79 0 0 0-4.68-1.27 7.87 7.87 0 0 0-4.42 1.2 9 9 0 0 0-2.91 3.12V11h-9v4.32H64v14.74h-3.52v4.26h13.41Zm71.66-11.18q0-4.32-2.39-6.34a8.35 8.35 0 0 0-5.56-2 8 8 0 0 0-4.84 1.43 9.06 9.06 0 0 0-3 3.82 6.79 6.79 0 0 0-2.91-4 8.79 8.79 0 0 0-4.68-1.27 7.87 7.87 0 0 0-4.42 1.2 9 9 0 0 0-2.91 3.12V11h-9v4.32h3.43v14.74h-3.48v4.26h13.42v-4.26h-4.37V20.9a7.47 7.47 0 0 1 1.35-4.24 4.57 4.57 0 0 1 4-1.85 4 4 0 0 1 3.25 1.38q1.17 1.38 1.17 4.71v9.15h-1.25v4.26h10.3v-4.25h-3.48V21a7.7 7.7 0 0 1 1.33-4.26 4.53 4.53 0 0 1 4-1.87 4.1 4.1 0 0 1 3.3 1.38Q140 17.58 140 20.9v9.15h-1.3v4.26H149v-4.25h-3.43Zm17.52-8.43q-6 0-9.1 3.67a13.21 13.21 0 0 0-3.07 8.76 11.75 11.75 0 0 0 3.25 8.74 11.68 11.68 0 0 0 8.61 3.22 12.34 12.34 0 0 0 9-3.35 11.72 11.72 0 0 0 3.46-8.81 13 13 0 0 0-3-8.58q-3.07-3.65-9.15-3.65Zm4.63 17.81a5.66 5.66 0 0 1-4.7 2.21 5.35 5.35 0 0 1-4.71-2.29 9.62 9.62 0 0 1-1.59-5.62 8.84 8.84 0 0 1 1.66-5.64 5.57 5.57 0 0 1 4.64-2.1 6 6 0 0 1 4.65 2 8.24 8.24 0 0 1 1.79 5.72 9.11 9.11 0 0 1-1.74 5.72Zm35.3-9.38q0-4.32-2.39-6.34a8.56 8.56 0 0 0-5.72-2 8.28 8.28 0 0 0-7.75 4.26V11h-9.2v4.32h3.64v14.74H178v4.26h12.53v-4.26h-3.48v-9.31a6.3 6.3 0 0 1 1.59-4.21 5.33 5.33 0 0 1 4.19-1.72 4.18 4.18 0 0 1 3.33 1.38q1.2 1.38 1.2 4.71v9.15H194v4.26h12.48v-4.26H203ZM250.48.52h-12.79v4.94h3.8l-7.8 20.02h-.26l-8.01-20.02h3.74V.52h-13.31v4.94h3.22l12.07 28.86h4.16l12.06-28.86h3.12V.52zm9.88 9.93q-6 0-9.1 3.67a13.21 13.21 0 0 0-3.07 8.76 11.75 11.75 0 0 0 3.25 8.74 11.68 11.68 0 0 0 8.56 3.22 12.34 12.34 0 0 0 9-3.35 11.72 11.72 0 0 0 3.46-8.81 13 13 0 0 0-3-8.58q-3.01-3.65-9.1-3.65ZM265 28.26a5.66 5.66 0 0 1-4.73 2.21 5.35 5.35 0 0 1-4.71-2.29 9.62 9.62 0 0 1-1.56-5.61 8.84 8.84 0 0 1 1.66-5.64 5.57 5.57 0 0 1 4.63-2.11 6 6 0 0 1 4.65 2 8.24 8.24 0 0 1 1.79 5.72 9.11 9.11 0 0 1-1.73 5.72Zm19.54-17.29h-9.2v4.32h3.69v14.77h-3.48v4.26h12.47v-4.26h-3.48V10.97zM278.72 0h5.67v6.14h-5.67zm23.5 30.37q-6 0-6-7.59 0-7.8 5.82-7.8a9.16 9.16 0 0 1 4.06.94l.78 3.85 4.47-.47-.94-6.55a15.48 15.48 0 0 0-4.08-1.75 17.11 17.11 0 0 0-4.16-.52 11.17 11.17 0 0 0-8.5 3.43 12.69 12.69 0 0 0-3.25 9.1q0 5.77 3.15 8.79a11.27 11.27 0 0 0 8.14 3q5.3 0 7.7-2.89a11.46 11.46 0 0 0 2.76-6l-4.68-.88q-.9 5.34-5.27 5.34Zm29.95-4.06a6.46 6.46 0 0 1-1.53 2.76 5 5 0 0 1-3.87 1.3q-5.77 0-6.24-6.55h15.76a17 17 0 0 0 .31-3.12 10.18 10.18 0 0 0-2.89-7.31 11.56 11.56 0 0 0-16 .7 13.5 13.5 0 0 0-3 8.94q0 5.82 3.28 8.81a11.94 11.94 0 0 0 8.37 3 11.16 11.16 0 0 0 7.44-2.29 8 8 0 0 0 3-5.36Zm-10-10a4.53 4.53 0 0 1 3.8-1.66 4.29 4.29 0 0 1 3.93 1.85 6 6 0 0 1 1 3.93h-10.3a8.22 8.22 0 0 1 1.59-4.15ZM101 72.35a1.53 1.53 0 0 0 1.67 1.65c1.49 0 3.08-1.07 3.18-3.5a15.43 15.43 0 0 0-2.11-.19c-1.49.03-2.74.45-2.74 2.04Zm-57.42 1.46c2.17 0 3.6-1.75 3.6-4.54 0-3-1.59-4.28-3.57-4.28-2.14 0-3.47 1.59-3.47 4.34.01 2.53 1.17 4.48 3.44 4.48Z"/><path d="M0 83.56h116.9V50.14H0Zm98-20.45a14.06 14.06 0 0 1 6.26-1.33c3.15 0 5.8 1.62 5.8 5v6.36c0 .84.32 1.13 1 1.13a2.21 2.21 0 0 0 .62-.1v2.2a5.65 5.65 0 0 1-2.63.68 3 3 0 0 1-3.21-2.92 5.3 5.3 0 0 1-4.7 2.92c-2.11 0-4.51-1.14-4.51-4.18 0-3.6 3.47-4.44 6.81-4.44a19.13 19.13 0 0 1 2.4.13V68c0-1.49 0-3.27-2.4-3.27a4.54 4.54 0 0 0-2.24.42l-.47 1.65-3.34-.36Zm-.91-8.72-6.35 22.3h-4.12l6.32-22.31Zm-12.61 0h4.12l-6.36 22.3h-4.12ZM71 62.07h4.38v5.25H71Zm0 9.37h4.38v5.25H71Zm-16.84-9.37H67l.32 2.2-8.11 9.24H64l.68-2.27 3.31.32-.99 5.13H54.26l-.42-2.2 8-9.24h-4.53l-.65 2.27-3-.32Zm-10.48-.29c5.25 0 7.81 3.53 7.81 7.62 0 4.67-3.37 7.62-8 7.62-4.51 0-7.62-2.76-7.62-7.43-.04-4.28 2.56-7.81 7.81-7.81ZM6.94 73.52h1.94v-8.27H6.94v-3.18h6.13v2.2a4.84 4.84 0 0 1 4.44-2.5 4.74 4.74 0 0 1 4.77 3.15A4.9 4.9 0 0 1 27 61.78a4.73 4.73 0 0 1 5 5.06v6.68h2v3.18h-6.11v-8.24c0-2.53-.84-3.5-2.5-3.5-2 0-2.82 1.43-2.82 3.47v5.09h1.95v3.18h-6.14v-8.24c0-2.53-.84-3.5-2.5-3.5-2 0-2.82 1.43-2.82 3.47v5.09h2.79v3.18H6.94Z"/><path d="m90.73 76.69 6.33-22.31h-4.12l-6.32 22.31h4.11z"/><path d="m90.73 76.69 6.33-22.31h-4.12l-6.32 22.31h4.11z" class="cls-2"/><path d="M43.45 77c4.67 0 8-3 8-7.62 0-4.09-2.56-7.62-7.81-7.62s-7.85 3.53-7.85 7.81c.04 4.69 3.16 7.43 7.66 7.43Zm.16-12c2 0 3.57 1.33 3.57 4.28 0 2.79-1.43 4.54-3.6 4.54s-3.44-1.95-3.44-4.47c.01-2.77 1.34-4.35 3.48-4.35Z"/><path d="M43.45 77c4.67 0 8-3 8-7.62 0-4.09-2.56-7.62-7.81-7.62s-7.85 3.53-7.85 7.81c.04 4.69 3.16 7.43 7.66 7.43Zm.16-12c2 0 3.57 1.33 3.57 4.28 0 2.79-1.43 4.54-3.6 4.54s-3.44-1.95-3.44-4.47c.01-2.77 1.34-4.35 3.48-4.35Z" class="cls-2"/><path d="M15.86 73.52h-2.79v-5.09c0-2 .81-3.47 2.82-3.47 1.65 0 2.5 1 2.5 3.5v8.24h6.13v-3.18h-1.95v-5.09c0-2 .81-3.47 2.82-3.47 1.65 0 2.5 1 2.5 3.5v8.24H34v-3.18h-1.93v-6.68a4.73 4.73 0 0 0-5-5.06 4.9 4.9 0 0 0-4.77 3.15 4.74 4.74 0 0 0-4.77-3.15 4.84 4.84 0 0 0-4.44 2.5v-2.2H6.94v3.18h1.94v8.27H6.94v3.18h8.92Z"/><path d="M15.86 73.52h-2.79v-5.09c0-2 .81-3.47 2.82-3.47 1.65 0 2.5 1 2.5 3.5v8.24h6.13v-3.18h-1.95v-5.09c0-2 .81-3.47 2.82-3.47 1.65 0 2.5 1 2.5 3.5v8.24H34v-3.18h-1.93v-6.68a4.73 4.73 0 0 0-5-5.06 4.9 4.9 0 0 0-4.77 3.15 4.74 4.74 0 0 0-4.77-3.15 4.84 4.84 0 0 0-4.44 2.5v-2.2H6.94v3.18h1.94v8.27H6.94v3.18h8.92Z" class="cls-2"/><path d="M57.31 65.25h4.57l-8.04 9.24.42 2.2h12.78l.9-5.12-3.3-.32-.68 2.27h-4.74l8.11-9.24-.33-2.21H54.16l-.51 5.12 3.01.33.65-2.27z"/><path d="M57.31 65.25h4.57l-8.04 9.24.42 2.2h12.78l.9-5.12-3.3-.32-.68 2.27h-4.74l8.11-9.24-.33-2.21H54.16l-.51 5.12 3.01.33.65-2.27z" class="cls-2"/><path d="M71.01 71.44h4.38v5.25h-4.38z"/><path d="M71.01 71.44h4.38v5.25h-4.38z" class="cls-2"/><path d="M88.56 54.38h-4.12l-6.32 22.31h4.12l6.32-22.31z"/><path d="M88.56 54.38h-4.12l-6.32 22.31h4.12l6.32-22.31z" class="cls-2"/><path d="M71.01 62.07h4.38v5.25h-4.38z"/><path d="M71.01 62.07h4.38v5.25h-4.38z" class="cls-2"/><path d="M101.21 65.18a4.54 4.54 0 0 1 2.24-.42c2.37 0 2.4 1.78 2.4 3.27v.49a19.13 19.13 0 0 0-2.4-.13c-3.34 0-6.81.84-6.81 4.44 0 3 2.4 4.18 4.51 4.18a5.3 5.3 0 0 0 4.7-2.92 3 3 0 0 0 3.21 2.91 5.65 5.65 0 0 0 2.63-.68v-2.2a2.21 2.21 0 0 1-.62.1c-.68 0-1-.29-1-1.13v-6.35c0-3.34-2.66-5-5.8-5A14.06 14.06 0 0 0 98 63.11l-.57 3.36 3.34.36Zm1.46 8.82a1.53 1.53 0 0 1-1.67-1.65c0-1.59 1.3-2 2.79-2a15.43 15.43 0 0 1 2.11.19c-.15 2.46-1.74 3.46-3.23 3.46Z"/><path d="M101.21 65.18a4.54 4.54 0 0 1 2.24-.42c2.37 0 2.4 1.78 2.4 3.27v.49a19.13 19.13 0 0 0-2.4-.13c-3.34 0-6.81.84-6.81 4.44 0 3 2.4 4.18 4.51 4.18a5.3 5.3 0 0 0 4.7-2.92 3 3 0 0 0 3.21 2.91 5.65 5.65 0 0 0 2.63-.68v-2.2a2.21 2.21 0 0 1-.62.1c-.68 0-1-.29-1-1.13v-6.35c0-3.34-2.66-5-5.8-5A14.06 14.06 0 0 0 98 63.11l-.57 3.36 3.34.36Zm1.46 8.82a1.53 1.53 0 0 1-1.67-1.65c0-1.59 1.3-2 2.79-2a15.43 15.43 0 0 1 2.11.19c-.15 2.46-1.74 3.46-3.23 3.46Z" class="cls-2"/></g></g></svg>