<svg xmlns="http://www.w3.org/2000/svg" width="900" height="600"><path d="M209.883 539.4c0 3.113-.559 5.91-1.677 8.39-1.119 2.48-2.755 4.423-4.91 5.827-2.155 1.404-4.71 2.106-7.666 2.106-3.542 0-6.465-.96-8.767-2.878-1.633-1.381-2.959-3.224-3.98-5.529-1.02-2.305-1.53-4.546-1.53-6.722 0-1.264.306-2.346.918-3.247.613-.901 1.392-1.351 2.34-1.351.766 0 1.415.35 1.946 1.053.53.702.984 1.743 1.36 3.124.456 1.638.95 3.007 1.48 4.107a7.254 7.254 0 0 0 2.242 2.72c.963.714 2.228 1.07 3.796 1.07 2.155 0 3.906-.719 5.253-2.158 1.346-1.44 2.02-3.235 2.02-5.388 0-1.709-.363-3.095-1.09-4.16a7.154 7.154 0 0 0-2.816-2.44c-1.151-.561-2.69-1.158-4.616-1.79-2.58-.866-4.74-1.878-6.478-3.036-1.739-1.158-3.118-2.738-4.139-4.739-1.02-2-1.53-4.487-1.53-7.46 0-2.83.538-5.346 1.616-7.546s2.637-3.89 4.678-5.072c2.04-1.182 4.44-1.773 7.2-1.773 2.204 0 4.11.392 5.718 1.176 1.608.784 2.943 1.825 4.004 3.124 1.061 1.299 1.837 2.662 2.326 4.09.49 1.427.735 2.82.735 4.177 0 1.24-.306 2.357-.918 3.352-.613.995-1.376 1.492-2.29 1.492-.833 0-1.465-.299-1.898-.895-.433-.597-.902-1.574-1.408-2.931-.653-1.943-1.437-3.458-2.351-4.546-.914-1.088-2.384-1.632-4.408-1.632-1.878 0-3.392.59-4.543 1.772-1.151 1.182-1.727 2.604-1.727 4.265 0 1.03.196 1.92.588 2.668a5.92 5.92 0 0 0 1.616 1.93c.686.539 1.38.96 2.082 1.264.702.305 1.861.75 3.478 1.334 2.024.679 3.857 1.428 5.497 2.247 1.641.819 3.037 1.813 4.188 2.983 1.151 1.17 2.05 2.65 2.694 4.44.645 1.791.967 3.985.967 6.582m22.017-36.892c3.722 0 6.918 1.082 9.587 3.247 2.67 2.165 4.69 5.242 6.062 9.232 1.37 3.99 2.057 8.676 2.057 14.058 0 3.979-.376 7.594-1.127 10.847-.75 3.253-1.877 6.073-3.38 8.46-1.501 2.386-3.346 4.212-5.534 5.475-2.188 1.264-4.694 1.896-7.518 1.896-2.809 0-5.323-.65-7.543-1.948-2.22-1.299-4.074-3.13-5.56-5.494-1.485-2.363-2.608-5.207-3.367-8.53-.759-3.323-1.138-6.915-1.138-10.776 0-3.955.395-7.582 1.187-10.882s1.939-6.107 3.441-8.424c1.502-2.317 3.33-4.09 5.486-5.318 2.155-1.229 4.604-1.843 7.347-1.843m10.334 26.467c0-3.768-.424-7.032-1.273-9.793-.85-2.762-2.061-4.85-3.637-6.266-1.575-1.416-3.384-2.124-5.424-2.124a7.363 7.363 0 0 0-4.029 1.176c-1.233.784-2.294 1.925-3.184 3.423-.89 1.497-1.591 3.41-2.106 5.739-.514 2.328-.771 4.943-.771 7.845 0 2.925.257 5.57.771 7.933.515 2.364 1.241 4.324 2.18 5.88.939 1.556 2.016 2.72 3.233 3.492a7.322 7.322 0 0 0 4.004 1.159c1.86 0 3.571-.667 5.13-2.001 1.56-1.334 2.8-3.393 3.723-6.178.922-2.785 1.383-6.213 1.383-10.285m35.094-17.551h-14.326v13.163h11.975c1.11 0 1.939.357 2.486 1.071.547.714.82 1.667.82 2.86 0 1.194-.277 2.142-.833 2.844-.555.702-1.38 1.053-2.473 1.053h-11.975v16.954c0 2.153-.34 3.75-1.017 4.792-.677 1.041-1.547 1.562-2.608 1.562-1.077 0-1.955-.527-2.633-1.58-.677-1.053-1.016-2.644-1.016-4.774v-39.595c0-1.497.155-2.72.465-3.668.31-.948.796-1.638 1.458-2.071.66-.433 1.506-.65 2.534-.65h17.143c1.16 0 2.02.37 2.584 1.106.563.738.845 1.703.845 2.896 0 1.217-.282 2.194-.845 2.931-.564.737-1.425 1.106-2.584 1.106m32.13.562h-7.934v37.383c0 2.153-.335 3.75-1.004 4.792-.67 1.041-1.535 1.562-2.596 1.562-1.078 0-1.955-.527-2.633-1.58-.677-1.053-1.016-2.644-1.016-4.774v-37.383h-7.935c-1.24 0-2.163-.392-2.767-1.176-.604-.784-.906-1.82-.906-3.107 0-1.334.314-2.387.943-3.159.628-.772 1.538-1.158 2.73-1.158h23.118c1.258 0 2.192.397 2.804 1.193.613.796.919 1.837.919 3.124 0 1.287-.31 2.323-.93 3.107-.621.784-1.552 1.176-2.793 1.176m38.62 26.607c0 1.638-.281 3.41-.844 5.318-.564 1.907-1.45 3.78-2.657 5.616a14.551 14.551 0 0 1-4.629 4.476c-1.877 1.147-4.065 1.72-6.563 1.72-1.894 0-3.616-.257-5.167-.772a12.432 12.432 0 0 1-4.225-2.405c-1.265-1.088-2.428-2.521-3.49-4.3-.947-1.615-1.755-3.422-2.424-5.423-.67-2-1.172-4.136-1.506-6.406-.335-2.27-.502-4.68-.502-7.231 0-4.142.42-7.851 1.26-11.128.842-3.276 2.046-6.078 3.613-8.407 1.567-2.328 3.404-4.1 5.51-5.318 2.106-1.216 4.351-1.825 6.735-1.825 2.906 0 5.494.83 7.763 2.492 2.27 1.662 4.008 3.715 5.216 6.16 1.209 2.446 1.813 4.757 1.813 6.933 0 1.194-.294 2.247-.882 3.16-.588.912-1.298 1.369-2.13 1.369-.931 0-1.63-.316-2.094-.948-.466-.632-.984-1.72-1.555-3.265-.947-2.55-2.062-4.458-3.343-5.721-1.282-1.264-2.862-1.896-4.74-1.896-2.987 0-5.366 1.627-7.138 4.88-1.771 3.252-2.657 7.874-2.657 13.865 0 4.001.392 7.33 1.176 9.986.783 2.656 1.893 4.64 3.33 5.95 1.437 1.31 3.118 1.966 5.045 1.966 2.09 0 3.857-.743 5.302-2.23 1.445-1.485 2.535-3.667 3.27-6.546.31-1.357.693-2.463 1.15-3.317.458-.854 1.192-1.281 2.204-1.281.866 0 1.609.433 2.229 1.299.62.866.93 1.942.93 3.23zm29.51 10.425-1.714-6.458H361.28l-1.715 6.599c-.67 2.574-1.24 4.312-1.714 5.212-.473.901-1.249 1.352-2.326 1.352-.915 0-1.723-.48-2.425-1.44-.702-.959-1.053-2.047-1.053-3.264 0-.702.082-1.427.245-2.176.163-.749.433-1.79.808-3.124l9.184-33.417c.26-.96.575-2.112.943-3.458.367-1.346.759-2.463 1.175-3.352.416-.89.963-1.61 1.64-2.16.678-.549 1.515-.824 2.511-.824 1.012 0 1.857.275 2.535.825.677.55 1.224 1.258 1.64 2.124.417.866.768 1.796 1.054 2.79.285.995.649 2.323 1.09 3.984l9.379 33.207c.735 2.527 1.102 4.364 1.102 5.511a5.613 5.613 0 0 1-1.04 3.282c-.695.995-1.531 1.492-2.511 1.492-.572 0-1.061-.146-1.47-.439-.408-.292-.75-.69-1.028-1.193-.278-.503-.576-1.276-.894-2.317-.318-1.041-.592-1.96-.82-2.756zm-14.4-14.286h10.727l-5.412-21.237zm50.792-22.746h-7.934v37.383c0 2.153-.335 3.75-1.004 4.792-.67 1.041-1.535 1.562-2.596 1.562-1.078 0-1.955-.527-2.633-1.58-.677-1.053-1.016-2.644-1.016-4.774v-37.383h-7.935c-1.24 0-2.163-.392-2.767-1.176-.604-.784-.906-1.82-.906-3.107 0-1.334.314-2.387.943-3.159.628-.772 1.538-1.158 2.73-1.158h23.118c1.257 0 2.192.398 2.804 1.193.613.796.919 1.837.919 3.124 0 1.287-.31 2.323-.93 3.107-.621.784-1.552 1.176-2.793 1.176m31.004 37.032-1.714-6.458h-14.596l-1.714 6.599c-.67 2.574-1.24 4.312-1.714 5.212-.474.901-1.25 1.352-2.327 1.352-.914 0-1.722-.48-2.424-1.44-.702-.959-1.053-2.047-1.053-3.264 0-.702.081-1.427.244-2.176.164-.749.433-1.79.809-3.124l9.183-33.417.943-3.458c.367-1.346.76-2.463 1.176-3.352.416-.89.963-1.61 1.64-2.16.678-.549 1.515-.824 2.51-.824 1.013 0 1.858.275 2.535.825.678.55 1.225 1.258 1.641 2.124.416.866.767 1.796 1.053 2.79.286.995.65 2.323 1.09 3.984l9.38 33.207c.734 2.527 1.101 4.364 1.102 5.511a5.613 5.613 0 0 1-1.041 3.282c-.694.995-1.53 1.492-2.51 1.492-.572 0-1.062-.146-1.47-.439-.408-.292-.75-.69-1.028-1.193-.278-.503-.576-1.276-.894-2.317a158.09 158.09 0 0 1-.82-2.756zm-14.4-14.286h10.727l-5.412-21.237zm34.604-25.906v37.454h14.743c1.176 0 2.078.41 2.706 1.23.629.818.943 1.848.943 3.088 0 1.264-.31 2.288-.93 3.072-.621.783-1.527 1.175-2.719 1.175h-17.56c-1.583 0-2.721-.503-3.415-1.509-.694-1.006-1.041-2.633-1.041-4.88v-39.63c0-2.106.33-3.685.992-4.738.66-1.053 1.53-1.58 2.608-1.58 1.094 0 1.98.52 2.657 1.562s1.016 2.627 1.016 4.756m46.114 40.192-1.714-6.458h-14.596l-1.714 6.599c-.67 2.574-1.24 4.312-1.714 5.212-.474.901-1.25 1.352-2.327 1.352-.914 0-1.722-.48-2.424-1.44-.702-.959-1.053-2.047-1.053-3.264 0-.702.081-1.427.244-2.176.164-.749.433-1.79.809-3.124l9.183-33.417.943-3.458c.367-1.346.76-2.463 1.176-3.352.416-.89.963-1.61 1.64-2.16.678-.549 1.515-.824 2.51-.824 1.013 0 1.858.275 2.535.825.678.55 1.225 1.258 1.641 2.124.416.866.767 1.796 1.053 2.79.286.995.65 2.323 1.09 3.984l9.38 33.207c.734 2.527 1.102 4.364 1.102 5.511a5.613 5.613 0 0 1-1.041 3.282c-.694.995-1.53 1.492-2.51 1.492-.572 0-1.062-.146-1.47-.439-.408-.292-.75-.69-1.028-1.193-.278-.503-.576-1.276-.894-2.317a158.09 158.09 0 0 1-.82-2.756zm-14.4-14.286h10.727l-5.412-21.237zm6.319-40.824 1.102 2.949c.44 1.006.661 1.696.661 2.07 0 .586-.351.878-1.053.878-1.078 0-2.082-.34-3.012-1.018-.457-.327-1.584-1.72-3.38-4.177-1.796-2.457-2.694-3.838-2.694-4.142 0-.35.417-.526 1.25-.527h3.305c.964 0 1.69.246 2.18.738.49.491 1.037 1.568 1.64 3.229z" style="font-size:12px;font-style:normal;font-weight:400;fill:#b50027;fill-opacity:1;stroke:none;font-family:Arial Rounded MT Bold" transform="matrix(2.12522 0 0 2.41939 -283.414 -988.534)"/><path d="m407.675 487.658 23.163-22.699 3.706 3.243-19.457 19.456zM282.597 613.2l42.619-43.083h7.412l-46.788 46.789zm90.797-125.542 40.303-39.84 3.706 3.243-37.06 36.597zm-108.4 108.401 25.941-25.942h6.95l-29.186 29.648-3.706-3.706zm119.982-108.401 34.743-34.28 3.243 3.242-31.038 31.038zm-113.96 114.424 31.5-31.965h6.95l-35.208 35.207zm125.541-114.424 28.721-28.721 3.243 3.706-25.015 25.015zM276.575 607.641l37.06-37.524h7.412l-40.766 41.23z" style="fill:#b50027;fill-rule:evenodd" transform="matrix(2.12522 0 0 2.41939 -283.414 -988.534)"/></svg>