<svg xmlns="http://www.w3.org/2000/svg" viewBox="0 0 21 18"><g fill="#3c9ae3"><path d="M3.153 6.5H0v4.999h3.153l4.108 3.38s.863.757.863.051V3.001c0-.559-.759.044-.759.044zm10.897 9.841c2.195-1.833 3.453-4.508 3.453-7.34S16.245 3.494 14.05 1.66a.69.69 0 0 0-.971.085.68.68 0 0 0 .084.963A8.18 8.18 0 0 1 16.126 9a8.2 8.2 0 0 1-2.961 6.291.676.676 0 0 0-.086.962c.244.293.68.329.971.088"/><path d="M14.74 9c0-2.02-.896-3.935-2.463-5.243a.69.69 0 0 0-.971.083.68.68 0 0 0 .084.965 5.46 5.46 0 0 1 1.975 4.194 5.46 5.46 0 0 1-1.975 4.194.68.68 0 0 0-.084.963.69.69 0 0 0 .971.082A6.8 6.8 0 0 0 14.74 9"/><path d="M11.984 9a4.09 4.09 0 0 0-1.479-3.147.69.69 0 0 0-1.13.524c0 .195.085.39.246.525a2.72 2.72 0 0 1 0 4.195.68.68 0 0 0-.084.962.69.69 0 0 0 .969.084A4.08 4.08 0 0 0 11.984 9"/></g></svg>